<svg width="35" height="35" fill="none" xmlns="http://www.w3.org/2000/svg"><path d="M9.964 25.405V3.111h14.137v17.213h1.364V1.961A1.967 1.967 0 0023.504 0H10.561A1.967 1.967 0 008.6 1.96v25.115c0 1.077.882 1.958 1.961 1.958h3.512l-1.936-3.629-2.173.001zm4.998-23.991h4.141c.131 0 .236.105.236.238 0 .13-.105.236-.236.236h-4.14a.237.237 0 110-.474zM26.4 22.977v-.242c0-.54-.439-.98-.982-.98h-.103a.98.98 0 00-.982.979v1.105h-.378v-1.105a.98.98 0 00-.98-.98h-.106c-.54 0-.98.44-.98.98v1.105h-.379v-1.105a.98.98 0 00-.98-.98h-.105a.98.98 0 00-.98.98v1.105h-.313V21.25c2.023-.523 3.529-2.348 3.529-4.531a4.703 4.703 0 00-4.698-4.699 4.704 4.704 0 00-4.698 4.699 4.704 4.704 0 003.788 4.605v6.038c-1.045-1.114-1.677-2.356-2.353-2.51-.874-.203-1.612.469-1.008 1.634.605 1.164 3.499 6.218 3.503 6.224.383.93 1.616 2.291 4.53 2.29 4.672.001 4.672-4.168 4.672-4.168v-6.02l.002-.009v-1.826zm-8.252-6.528l-.106-.001a.986.986 0 00-.987.988v1.087a2.024 2.024 0 01-1.118-1.803c0-1.118.91-2.029 2.028-2.029 1.119 0 2.03.91 2.03 2.029 0 .681-.343 1.283-.859 1.65v-.934a.986.986 0 00-.988-.987zm-4.397.27a4.22 4.22 0 014.214-4.215 4.22 4.22 0 014.214 4.215c0 1.915-1.293 3.516-3.045 4.027v-1.27a3.003 3.003 0 001.827-2.757 3 3 0 00-2.997-2.996 3 3 0 00-2.996 2.996c0 1.332.88 2.451 2.087 2.84v1.27a4.22 4.22 0 01-3.304-4.11z" fill="#4066C4"/></svg>