<svg width="20" height="19" fill="none" xmlns="http://www.w3.org/2000/svg"><path d="M12.203 9.12L19.68 2.3a.95.95 0 00.32-.706.948.948 0 00-.32-.705L19.025.29a1.14 1.14 0 00-.774-.29 1.14 1.14 0 00-.773.291L10 7.111 2.522.292A1.14 1.14 0 001.75 0c-.294 0-.57.103-.774.291L.32.89a.938.938 0 000 1.41l7.478 6.822L.32 15.94a.95.95 0 00-.32.706.95.95 0 00.32.706l.655.597c.206.189.481.292.774.292.293 0 .567-.104.773-.292L10 11.13l7.478 6.82c.206.189.48.292.773.292.293 0 .568-.104.774-.292l.655-.597a.95.95 0 00.32-.706.95.95 0 00-.32-.705L12.203 9.12z" fill="#0A2D1E"/></svg>