<svg width="25" height="25" viewBox="0 0 25 25" fill="none" xmlns="http://www.w3.org/2000/svg">
<path d="M13.8809 12.501L24.7137 1.66812C25.0951 1.28673 25.0951 0.66837 24.7137 0.287023C24.3323 -0.0943236 23.714 -0.0943724 23.3326 0.287023L12.4997 11.1199L1.6669 0.287023C1.28551 -0.0943724 0.66715 -0.0943724 0.285803 0.287023C-0.0955443 0.668419 -0.0955931 1.28678 0.285803 1.66812L11.1186 12.501L0.285803 23.3339C-0.0955931 23.7153 -0.0955931 24.3336 0.285803 24.715C0.476476 24.9056 0.726427 25.0009 0.976377 25.0009C1.22633 25.0009 1.47623 24.9056 1.66695 24.715L12.4997 13.8821L23.3326 24.715C23.5233 24.9056 23.7732 25.0009 24.0232 25.0009C24.2731 25.0009 24.523 24.9056 24.7137 24.715C25.0951 24.3336 25.0951 23.7152 24.7137 23.3339L13.8809 12.501Z" fill="black"/>
</svg>
