<svg width="35" height="35" fill="none" xmlns="http://www.w3.org/2000/svg"><g clip-path="url(#clip0)" fill="#4066C4"><path d="M27.412 1.367C27.412.612 26.8 0 26.045 0H8.955a1.367 1.367 0 100 2.734h17.09c.755 0 1.367-.612 1.367-1.367zm0 32.266c0-.755-.612-1.367-1.367-1.367H8.955a1.367 1.367 0 100 2.734h17.09c.755 0 1.367-.612 1.367-1.367z"/><path d="M18.867 23.994V6.208l3.883 3.915a1.367 1.367 0 101.941-1.926l-4.214-4.249a4.069 4.069 0 00-2.909-1.214 4.07 4.07 0 00-2.908 1.214l-4.215 4.25a1.363 1.363 0 00.008 1.934 1.367 1.367 0 001.934-.01l3.746-3.776v17.648a1.367 1.367 0 102.734 0z"/><path d="M20.477 31.052l4.214-4.25a1.367 1.367 0 10-1.941-1.925l-4.215 4.25a1.354 1.354 0 01-1.934 0l-4.214-4.25a1.367 1.367 0 10-1.942 1.925l4.215 4.25a4.069 4.069 0 002.908 1.214 4.07 4.07 0 002.909-1.214z"/></g><defs><clipPath id="clip0"><path fill="#fff" transform="rotate(90 17.5 17.5)" d="M0 0h35v35H0z"/></clipPath></defs></svg>