<svg width="55" height="55" viewBox="0 0 55 55" fill="none" xmlns="http://www.w3.org/2000/svg">
<path d="M27.5 0C12.3356 0 0 12.3368 0 27.5C0 42.6632 12.3356 55 27.5 55C42.6644 55 55 42.6632 55 27.5C55 12.3368 42.6644 0 27.5 0ZM38.4324 28.4635L22.3908 38.776C22.2028 38.8979 21.9857 38.9584 21.7709 38.9584C21.5829 38.9584 21.3926 38.9113 21.2226 38.8185C20.8533 38.6171 20.625 38.2321 20.625 37.8125V17.1875C20.625 16.7679 20.8533 16.3829 21.2226 16.1815C21.5851 15.9823 22.0394 15.9946 22.3908 16.224L38.4324 26.5365C38.7592 26.7469 38.9584 27.1106 38.9584 27.5C38.9584 27.8894 38.7592 28.253 38.4324 28.4635Z" fill="#F62A3C"/>
</svg>
