<svg width="45" height="45" fill="none" xmlns="http://www.w3.org/2000/svg"><path d="M41.716 33.8a.75.75 0 01.753.75v6.653a3.75 3.75 0 01-3.75 3.75H3.75A3.75 3.75 0 010 41.203V13.266a3.75 3.75 0 013.75-3.75h34.969a3.75 3.75 0 013.75 3.75v6.656a.75.75 0 01-.753.75c-.78-.003-2.564 0-6.934 0a4.5 4.5 0 00-4.5 4.5v4.125a4.5 4.5 0 004.5 4.5c4.434 0 6.17.006 6.934.003zM45 25.172v4.125c0 1.658-1.35 3-2.998 3h-7.22c-1.654 0-3-1.345-3-3v-4.125c0-1.655 1.345-3 3-3H42c1.654 0 3 1.345 3 3zm-7.406 2.062a.75.75 0 00-.75-.75h-1.125a.75.75 0 000 1.5h1.125a.75.75 0 00.75-.75zM35.68 4.825l-.699-.205a.751.751 0 00-.802.255c-.57.723-1.004 1.471-1.076 2.329a.75.75 0 00.748.812h3.202a.747.747 0 00.739-.884 3 3 0 00-2.112-2.307zm-4.086 2.462c.028-.89.32-1.685.787-2.452a.749.749 0 00-.43-1.108l-4.755-1.4a.738.738 0 00-.947.72v4.219c0 .414.336.75.75.75h3.846a.75.75 0 00.75-.729zm-18.47.729h1.031a.75.75 0 00.75-.75V.796a.75.75 0 00-.75-.75h-1.031a.75.75 0 00-.75.75v6.47c0 .414.336.75.75.75zM21.75.046h-4.594a.75.75 0 00-.75.75v6.47c0 .414.336.75.75.75H24a.75.75 0 00.75-.75v-4.22c0-1.654-1.346-3-3-3zm-11.625 0H9.094a3 3 0 00-3 3v4.22c0 .414.336.75.75.75h3.281a.75.75 0 00.75-.75V.796a.75.75 0 00-.75-.75z" fill="#0A2D1E"/></svg>