<svg width="35" height="35" fill="none" xmlns="http://www.w3.org/2000/svg"><path fill-rule="evenodd" clip-rule="evenodd" d="M24.951 7.316c3.035.704 4.195 2.478 5.65 4.92h-5.65v-4.92zM7.217 12.44c.594 0 1.026.287 1.026.957 0 .566-.458 1.024-1.023 1.026H1.025a1.025 1.025 0 000 2.05h9.229a1.025 1.025 0 11.004 2.051H1.025a1.025 1.025 0 100 2.051h2.256v3.076c0 .567.46 1.026 1.026 1.026h2.06a3.932 3.932 0 007.705 0h10.411a3.932 3.932 0 007.704 0h1.788c.566 0 1.025-.46 1.025-1.026V17.5c0-3.009-3.173-3.208-3.176-3.213h-7.898a1.025 1.025 0 01-1.026-1.025V7.109H4.307c-.567 0-1.026.46-1.026 1.026v2.256h-1.23a1.025 1.025 0 100 2.05h5.166zm22.447 10.121a1.88 1.88 0 010 2.66c-1.18 1.18-3.209.34-3.209-1.33 0-1.67 2.028-2.51 3.21-1.33zm-18.115 0a1.88 1.88 0 010 2.66c-1.18 1.18-3.21.34-3.21-1.33 0-1.67 2.03-2.51 3.21-1.33z" fill="#4066C4"/></svg>