<svg width="35" height="35" viewBox="0 0 35 35" fill="none" xmlns="http://www.w3.org/2000/svg">
<g clip-path="url(#clip0)">
<path d="M27.4121 1.36719C27.4121 0.612091 26.8 7.80027e-07 26.0449 7.4702e-07L8.95508 0C8.19998 -3.3007e-08 7.58789 0.61209 7.58789 1.36719C7.58789 2.12228 8.19998 2.73437 8.95508 2.73437H26.0449C26.8 2.73437 27.4121 2.12229 27.4121 1.36719Z" fill="#892706"/>
<path d="M27.4121 33.6328C27.4121 32.8777 26.8 32.2656 26.0449 32.2656H8.95508C8.19998 32.2656 7.58789 32.8777 7.58789 33.6328C7.58789 34.3879 8.19998 35 8.95508 35H26.0449C26.8 35 27.4121 34.3879 27.4121 33.6328Z" fill="#892706"/>
<path d="M18.8671 23.9941V6.20806L22.75 10.1229C23.2817 10.6591 24.1473 10.6626 24.6834 10.1309C25.2194 9.59931 25.2231 8.73359 24.6914 8.19738L20.4767 3.94804C19.7005 3.16539 18.6676 2.73438 17.5683 2.73438C16.469 2.73438 15.4361 3.16539 14.6598 3.94804L10.4453 8.19738C10.1809 8.46398 10.0488 8.81208 10.0488 9.1601C10.0488 9.51187 10.1837 9.86357 10.4532 10.1309C10.9893 10.6626 11.855 10.6591 12.3867 10.1229L16.1328 6.34595V23.9941C16.1328 24.7492 16.7449 25.3613 17.5 25.3613C18.2551 25.3613 18.8671 24.7492 18.8671 23.9941Z" fill="#892706"/>
<path d="M20.4769 31.0518L24.6914 26.8024C25.2232 26.2663 25.2196 25.4006 24.6835 24.8689C24.1474 24.3372 23.2817 24.3407 22.75 24.8769L18.5355 29.1262C18.2765 29.3872 17.933 29.5311 17.5684 29.5311C17.2038 29.5311 16.8603 29.3872 16.6014 29.1262L12.3868 24.8769C11.8551 24.3407 10.9894 24.3372 10.4533 24.8689C10.1837 25.1362 10.0489 25.4879 10.0489 25.8397C10.0489 26.1877 10.1809 26.5359 10.4453 26.8024L14.66 31.0518C15.4362 31.8344 16.4691 32.2654 17.5684 32.2654C18.6677 32.2654 19.7006 31.8344 20.4769 31.0518Z" fill="#892706"/>
</g>
<defs>
<clipPath id="clip0">
<rect width="35" height="35" fill="white"/>
</clipPath>
</defs>
</svg>
